<?xml version="1.0" encoding="UTF-8" standalone="no"?>
<svg
   stroke="currentColor"
   fill="none"
   stroke-width="2"
   viewBox="0 0 61.44 61.44"
   stroke-linecap="round"
   stroke-linejoin="round"
   height="512"
   width="512"
   version="1.1"
   id="svg2"
   sodipodi:docname="select-chevron.svg"
   xml:space="preserve"
   inkscape:version="1.3.2 (091e20e, 2023-11-25)"
   xmlns:inkscape="http://www.inkscape.org/namespaces/inkscape"
   xmlns:sodipodi="http://sodipodi.sourceforge.net/DTD/sodipodi-0.dtd"
   xmlns="http://www.w3.org/2000/svg"
   xmlns:svg="http://www.w3.org/2000/svg"><defs
     id="defs2" /><sodipodi:namedview
     id="namedview2"
     pagecolor="#ffffff"
     bordercolor="#000000"
     borderopacity="0.25"
     inkscape:showpageshadow="2"
     inkscape:pageopacity="0.0"
     inkscape:pagecheckerboard="0"
     inkscape:deskcolor="#d1d1d1"
     showgrid="true"
     inkscape:zoom="0.78712434"
     inkscape:cx="206.44769"
     inkscape:cy="327.14018"
     inkscape:window-width="1472"
     inkscape:window-height="830"
     inkscape:window-x="0"
     inkscape:window-y="37"
     inkscape:window-maximized="1"
     inkscape:current-layer="layer1"><inkscape:grid
       id="grid3"
       units="px"
       originx="0"
       originy="0"
       spacingx="0.12"
       spacingy="0.12"
       empcolor="#0099e5"
       empopacity="0.30196078"
       color="#0099e5"
       opacity="0.14901961"
       empspacing="5"
       dotted="false"
       gridanglex="30"
       gridanglez="30"
       visible="true" /></sodipodi:namedview><g
     inkscape:groupmode="layer"
     id="layer1"
     inkscape:label="background"><rect
       style="fill:#b03230;fill-opacity:1;stroke-width:0;stroke-linejoin:round;paint-order:stroke fill markers"
       id="rect3"
       width="61.439999"
       height="61.439999"
       x="4.4408921e-16"
       y="4.4408921e-16"
       rx="5.782588"
       ry="5.782588"
       inkscape:label="shield" /></g><g
     inkscape:groupmode="layer"
     id="layer4"
     inkscape:label="up-down-chevrons"><g
       style="fill:currentColor;stroke:currentColor;stroke-width:0"
       id="g3"
       transform="matrix(3.8393492,0,0,3.8393492,0.00570927,0.00520568)"
       inkscape:label="chevrons"><path
         fill-rule="evenodd"
         d="m 3.646,9.146 a 0.5,0.5 0 0 1 0.708,0 L 8,12.793 11.646,9.146 a 0.5006316,0.5006316 0 0 1 0.708,0.708 l -4,4 a 0.5,0.5 0 0 1 -0.708,0 l -4,-4 a 0.5,0.5 0 0 1 0,-0.708 z m 0,-2.292 a 0.5,0.5 0 0 0 0.708,0 L 8,3.207 11.646,6.854 a 0.5006316,0.5006316 0 0 0 0.708,-0.708 l -4,-4 a 0.5,0.5 0 0 0 -0.708,0 l -4,4 a 0.5,0.5 0 0 0 0,0.708 z"
         id="path1-2"
         style="fill:#ffffff"
         inkscape:label="path" /></g></g><g
     inkscape:groupmode="layer"
     id="layer3"
     inkscape:label="org" /></svg>
