<?xml version="1.0" encoding="UTF-8" standalone="no"?>
<!-- Created with Inkscape (http://www.inkscape.org/) -->

<svg
   width="512"
   height="512"
   viewBox="0 0 512 512"
   version="1.1"
   id="svg1"
   inkscape:version="1.3.2 (091e20e, 2023-11-25)"
   sodipodi:docname="music.svg"
   xml:space="preserve"
   xmlns:inkscape="http://www.inkscape.org/namespaces/inkscape"
   xmlns:sodipodi="http://sodipodi.sourceforge.net/DTD/sodipodi-0.dtd"
   xmlns="http://www.w3.org/2000/svg"
   xmlns:svg="http://www.w3.org/2000/svg"><sodipodi:namedview
     id="namedview1"
     pagecolor="#ffffff"
     bordercolor="#000000"
     borderopacity="0.25"
     inkscape:showpageshadow="2"
     inkscape:pageopacity="0.0"
     inkscape:pagecheckerboard="0"
     inkscape:deskcolor="#d1d1d1"
     inkscape:document-units="px"
     showgrid="true"
     inkscape:zoom="0.8654366"
     inkscape:cx="211.45396"
     inkscape:cy="227.05303"
     inkscape:window-width="1472"
     inkscape:window-height="814"
     inkscape:window-x="0"
     inkscape:window-y="37"
     inkscape:window-maximized="1"
     inkscape:current-layer="layer1"><inkscape:grid
       id="grid1"
       units="px"
       originx="0"
       originy="0"
       spacingx="1"
       spacingy="1"
       empcolor="#0099e5"
       empopacity="0.30196078"
       color="#0099e5"
       opacity="0.14902"
       empspacing="5"
       dotted="false"
       gridanglex="30"
       gridanglez="30"
       visible="true"
       snapvisiblegridlinesonly="true" /></sodipodi:namedview><defs
     id="defs1"><style
       id="style1">.cls-1{fill:none;stroke:#000;stroke-linecap:round;stroke-linejoin:round;}</style></defs><g
     inkscape:label="Layer 1"
     inkscape:groupmode="layer"
     id="layer1"><g
       id="g1"
       transform="matrix(1.5788183,0,0,1.4919535,-363.09054,19.78862)"><g
         id="g3"
         transform="matrix(6.2211532,0,0,6.2211532,83.35531,-152.43887)"><title
           id="title3">Layer 1</title><path
           id="svg_1"
           class="cls-1"
           style="fill:none;stroke:#d21d30;stroke-linecap:round;stroke-linejoin:round;stroke-opacity:1"
           d="M 42.18079,29.975805 V 68.115806" /><path
           id="svg_2"
           class="cls-1"
           style="fill:none;stroke:#d21d30;stroke-linecap:round;stroke-linejoin:round;stroke-opacity:1"
           d="m 42.18079,29.975805 31.760003,-6" /><path
           id="svg_3"
           class="cls-1"
           style="fill:none;stroke:#d21d30;stroke-linecap:round;stroke-linejoin:round;stroke-opacity:1"
           d="m 42.18079,38.225803 31.760003,-6" /><path
           id="svg_4"
           class="cls-1"
           style="fill:#d21d30;fill-opacity:1;stroke:#d21d30;stroke-linecap:round;stroke-linejoin:round;stroke-opacity:1"
           d="m 41.928447,66.137034 a 6.7399998,8.71 72.26 0 1 -6.242166,9.073426 6.7399998,8.71 72.26 0 1 -10.349496,-3.765586 6.7399998,8.71 72.26 0 1 6.242166,-9.073425 6.7399998,8.71 72.26 0 1 10.349496,3.765585 z" /><path
           id="svg_5"
           class="cls-1"
           style="fill:none;stroke:#d21d30;stroke-linecap:round;stroke-linejoin:round;stroke-opacity:1"
           d="M 74.00079,23.975805 V 62.115802" /><path
           id="svg_6"
           class="cls-1"
           style="fill:#d21d30;fill-opacity:1;stroke:#d21d30;stroke-linecap:round;stroke-linejoin:round;stroke-opacity:1"
           d="m 73.747184,60.136851 a 6.7399998,8.71 72.26 0 1 -6.242165,9.073427 6.7399998,8.71 72.26 0 1 -10.349496,-3.765586 6.7399998,8.71 72.26 0 1 6.242166,-9.073427 6.7399998,8.71 72.26 0 1 10.349495,3.765586 z" /><path
           style="fill:#d21d30;fill-opacity:1;stroke:#cc1d30;stroke-width:1.5635;stroke-dasharray:none;stroke-dashoffset:0;stroke-opacity:1"
           d="m 42.731472,33.938786 c 0,-1.931588 0.04085,-3.511979 0.09077,-3.511979 0.04992,0 6.859855,-1.27776 15.133183,-2.83947 8.273328,-1.561709 15.125673,-2.839472 15.227434,-2.839472 0.141784,0 0.185016,0.816671 0.185016,3.495014 v 3.495015 l -1.681266,0.320701 c -10.684789,2.038126 -28.555967,5.392168 -28.730821,5.392168 -0.193091,0 -0.224314,-0.488833 -0.224314,-3.511977 z"
           id="path2" /></g></g></g></svg>
